<svg width="160" height="160" viewBox="0 0 160 160" fill="none" xmlns="http://www.w3.org/2000/svg">
<g clip-path="url(#clip0_34_2)">
<path d="M76.7168 160H83.3792C119.546 160 137.632 160 148.864 148.768C160.096 137.536 160 119.456 160 83.3792V76.6208C160 40.5504 160 22.464 148.864 11.232C137.728 3.17383e-05 119.546 0 83.3792 0H76.7168C40.544 0 22.464 3.17383e-05 11.232 11.232C-7.32422e-06 22.464 0 40.5376 0 76.6208V83.3792C0 119.456 -7.32422e-06 137.536 11.232 148.768C22.464 160 40.544 160 76.7168 160Z" fill="#0077FF"/>
<path d="M85.857 115.359C49.7802 115.359 27.8859 90.3289 27.0347 48.7354H45.3067C45.8763 79.2889 59.7771 92.2553 70.4331 94.8985V48.7354H87.9499V75.0969C98.2283 73.9577 108.98 61.9641 112.603 48.7354H129.825C127.067 65.0105 115.361 77.0042 107.079 81.9514C115.361 85.9514 128.686 96.4217 133.825 115.359H114.887C110.887 102.7 101.083 92.8953 87.9499 91.5641V115.359H85.857Z" fill="white"/>
</g>
<defs>
<clipPath id="clip0_34_2">
<rect width="160" height="160" fill="white"/>
</clipPath>
</defs>
</svg>
