<svg width="80" height="80" viewBox="0 0 80 80" fill="none" xmlns="http://www.w3.org/2000/svg">
<g clip-path="url(#clip0_7985_3872)">
<path d="M38.3584 80H41.6896C59.7728 80 68.816 80 74.432 74.384C80.048 68.768 80 59.728 80 41.6896V38.3104C80 20.2752 80 11.232 74.432 5.61602C68.864 1.58691e-05 59.7728 0 41.6896 0H38.3584C20.272 0 11.232 1.58691e-05 5.616 5.61602C-3.66211e-06 11.232 0 20.2688 0 38.3104V41.6896C0 59.728 -3.66211e-06 68.768 5.616 74.384C11.232 80 20.272 80 38.3584 80Z" fill="#0077FF"/>
<path d="M42.9288 57.6792C24.8904 57.6792 13.9432 45.164 13.5176 24.3672H22.6536C22.9384 39.644 29.8888 46.1272 35.2168 47.4488V24.3672H43.9752V37.548C49.1144 36.9784 54.4904 30.9816 56.3016 24.3672H64.9128C63.5336 32.5048 57.6808 38.5016 53.54 40.9752C57.6808 42.9752 64.3432 48.2104 66.9128 57.6792H57.444C55.444 51.3496 50.5416 46.4472 43.9752 45.7816V57.6792H42.9288Z" fill="white"/>
</g>
<defs>
<clipPath id="clip0_7985_3872">
<rect width="80" height="80" fill="white"/>
</clipPath>
</defs>
</svg>
