<svg width="80" height="80" viewBox="0 0 80 80" fill="none" xmlns="http://www.w3.org/2000/svg">
<g clip-path="url(#clip0_34_82)">
<path d="M38.3584 80H41.6896C59.7728 80 68.816 80 74.432 74.384C80.048 68.768 80 59.728 80 41.6896V38.3104C80 20.2752 80 11.232 74.432 5.61602C68.864 1.58691e-05 59.7728 0 41.6896 0H38.3584C20.272 0 11.232 1.58691e-05 5.616 5.61602C-3.66211e-06 11.232 0 20.2688 0 38.3104V41.6896C0 59.728 -3.66211e-06 68.768 5.616 74.384C11.232 80 20.272 80 38.3584 80Z" fill="#99A2AD"/>
<path d="M42.9288 57.6794C24.8904 57.6794 13.9432 45.1642 13.5176 24.3674H22.6536C22.9384 39.6442 29.8888 46.1274 35.2168 47.449V24.3674H43.9752V37.5482C49.1144 36.9786 54.4904 30.9818 56.3016 24.3674H64.9128C63.5336 32.505 57.6808 38.5018 53.54 40.9754C57.6808 42.9754 64.3432 48.2106 66.9128 57.6794H57.444C55.444 51.3498 50.5416 46.4474 43.9752 45.7818V57.6794H42.9288Z" fill="white"/>
</g>
<defs>
<clipPath id="clip0_34_82">
<rect width="80" height="80" fill="white"/>
</clipPath>
</defs>
</svg>
